<svg width="24" height="24" viewBox="0 0 24 24" fill="none" xmlns="http://www.w3.org/2000/svg">
<circle cx="12" cy="12" r="12" fill="#405261"/>
<path d="M18.1542 6.6001H6.38102C5.9502 6.6001 5.59961 6.95069 5.59961 7.3815V15.1435C5.59961 15.5743 5.9502 15.9249 6.38102 15.9249H18.1542C18.585 15.9249 18.9356 15.5743 18.9356 15.1435V7.3815C18.9356 6.95069 18.585 6.6001 18.1542 6.6001Z" fill="white"/>
<path d="M16.4347 17.8524H14.3249V16.7063H10.2095V17.8524H8.09969C7.88402 17.8524 7.70898 18.0274 7.70898 18.2431C7.70898 18.4587 7.88402 18.6338 8.09969 18.6338H16.4347C16.6504 18.6338 16.8254 18.4587 16.8254 18.2431C16.8254 18.0274 16.6504 17.8524 16.4347 17.8524Z" fill="white"/>
</svg>
