<svg width="64" height="64" viewBox="0 0 64 64" fill="none" xmlns="http://www.w3.org/2000/svg">
<circle cx="32" cy="32" r="32" fill="#5A9DAF"/>
<g clip-path="url(#clip0)">
<path d="M28.0082 14V16.6694H30.6776V18.0041C31.6119 17.8706 32.4127 17.8706 33.347 18.0041V16.6694H36.0164V14H28.0082Z" fill="#DCEDF1"/>
<path d="M41.0882 22.809L42.0224 21.8747L43.0902 22.9425L44.9588 21.0739L40.9547 17.0698L39.0861 18.9384L40.1539 20.0061L38.9527 21.2073C32.5462 17.3367 24.271 19.3387 20.5339 25.7453C16.7968 32.1518 18.7988 40.16 25.0718 44.0306C31.3449 47.9012 39.62 45.8992 43.3572 39.4927C46.6939 34.0204 45.7596 27.08 41.0882 22.809ZM32.0122 41.8951C26.8069 41.8951 22.6694 37.7576 22.6694 32.5523C22.6694 27.347 26.8069 23.2094 32.0122 23.2094V32.5522H41.3551C41.3551 37.7575 37.2175 41.8951 32.0122 41.8951Z" fill="#DCEDF1"/>
</g>
<defs>
<clipPath id="clip0">
<rect width="32" height="32" fill="white" transform="translate(16 14)"/>
</clipPath>
</defs>
</svg>
