<svg width="64" height="64" viewBox="0 0 64 64" fill="none" xmlns="http://www.w3.org/2000/svg">
<circle cx="32" cy="32" r="32" fill="#5A9DAF"/>
<path d="M15.2929 39.2929C14.9023 39.6834 14.9023 40.3166 15.2929 40.7071L21.6568 47.0711C22.0473 47.4616 22.6805 47.4616 23.071 47.0711C23.4616 46.6805 23.4616 46.0474 23.071 45.6569L17.4142 40L23.071 34.3431C23.4616 33.9526 23.4616 33.3195 23.071 32.9289C22.6805 32.5384 22.0473 32.5384 21.6568 32.9289L15.2929 39.2929ZM47.0303 39H33.239V41H47.0303V39ZM33.239 39L16 39V41H33.239V39Z" fill="#DCEDF1"/>
<path d="M48.7071 23.2929C49.0977 23.6834 49.0977 24.3166 48.7071 24.7071L42.3432 31.0711C41.9527 31.4616 41.3195 31.4616 40.929 31.0711C40.5384 30.6805 40.5384 30.0474 40.929 29.6569L46.5858 24L40.929 18.3431C40.5384 17.9526 40.5384 17.3195 40.929 16.9289C41.3195 16.5384 41.9527 16.5384 42.3432 16.9289L48.7071 23.2929ZM16.9697 23H30.761V25H16.9697V23ZM30.761 23L48 23V25L30.761 25V23Z" fill="#DCEDF1"/>
</svg>
