<svg width="64" height="66" viewBox="0 0 64 66" fill="none" xmlns="http://www.w3.org/2000/svg">
<circle cx="32" cy="33" r="32" fill="#5A9DAF"/>
<g clip-path="url(#clip0)">
<path d="M38.5825 31.5786H41.3948V38.3125H38.5825V31.5786Z" fill="#DCEDF1"/>
<path d="M33.2567 31.5786H36.0692V38.3125H33.2567V31.5786Z" fill="#DCEDF1"/>
<path d="M27.9308 31.5786H30.7433V38.3125H27.9308V31.5786Z" fill="#DCEDF1"/>
<path d="M22.6052 31.5786H25.4175V38.3125H22.6052V31.5786Z" fill="#DCEDF1"/>
<path d="M42.3325 29.4692V28.7661H21.6677V29.4692C21.6677 29.8576 21.9825 30.1724 22.3708 30.1724H41.6293C42.0175 30.1724 42.3325 29.8576 42.3325 29.4692Z" fill="#DCEDF1"/>
<path d="M43.2965 39.7188H20.7039C20.3155 39.7188 20.0007 40.0335 20.0007 40.4219V42.2969C20.0007 42.6852 20.3155 43 20.7039 43H43.2965C43.6849 43 43.9996 42.6852 43.9996 42.2969V40.4219C43.9996 40.0335 43.6849 39.7188 43.2965 39.7188Z" fill="#DCEDF1"/>
<path d="M20.7032 27.3599H43.297C43.6115 27.3599 43.8878 27.1509 43.9735 26.8483C44.0591 26.5456 43.9334 26.2228 43.6656 26.058L32.3687 19.1044C32.1427 18.9652 31.8576 18.9652 31.6315 19.1044L20.3347 26.058C20.0668 26.223 19.9412 26.5456 20.0269 26.8483C20.1125 27.1509 20.3889 27.3599 20.7032 27.3599ZM31.5222 23.1356H32.4782C32.8666 23.1356 33.1813 23.4504 33.1813 23.8387C33.1813 24.2271 32.8666 24.5419 32.4782 24.5419H31.5222C31.1338 24.5419 30.8191 24.2271 30.8191 23.8387C30.8191 23.4504 31.1338 23.1356 31.5222 23.1356Z" fill="#DCEDF1"/>
</g>
<path d="M16.999 46.7074C16.7228 46.7074 16.499 46.9312 16.499 47.2074L16.499 51.7074C16.499 51.9835 16.7228 52.2074 16.999 52.2074C17.2751 52.2074 17.499 51.9835 17.499 51.7074L17.499 47.7074L21.499 47.7074C21.7751 47.7074 21.999 47.4835 21.999 47.2074C21.999 46.9312 21.7751 46.7074 21.499 46.7074L16.999 46.7074ZM46.2486 47.2485C38.387 55.1101 25.4499 54.9512 17.3525 46.8538L16.6454 47.5609C25.1154 56.0309 38.6859 56.2254 46.9557 47.9557L46.2486 47.2485ZM49.2113 22.7082C53.786 30.58 52.8141 40.683 46.2486 47.2485L46.9557 47.9557C53.8614 41.05 54.8645 30.4456 50.0759 22.2057L49.2113 22.7082Z" fill="#DCEDF1"/>
<path d="M46.2074 18.4989C46.4836 18.4989 46.7074 18.2751 46.7074 17.9989L46.7074 13.4989C46.7074 13.2228 46.4836 12.9989 46.2074 12.9989C45.9313 12.9989 45.7074 13.2228 45.7074 13.4989L45.7074 17.4989L41.7074 17.4989C41.4313 17.4989 41.2074 17.7228 41.2074 17.9989C41.2074 18.2751 41.4313 18.4989 41.7074 18.4989L46.2074 18.4989ZM16.9578 17.9578C24.8194 10.0962 37.7565 10.2551 45.8539 18.3525L46.561 17.6454C38.091 9.17539 24.5205 8.98089 16.2507 17.2507L16.9578 17.9578ZM13.9951 42.4981C9.42039 34.6263 10.3923 24.5233 16.9578 17.9578L16.2507 17.2507C9.34503 24.1564 8.34191 34.7607 13.1305 43.0006L13.9951 42.4981Z" fill="#DCEDF1"/>
<defs>
<clipPath id="clip0">
<rect width="24" height="24" fill="white" transform="translate(20 19)"/>
</clipPath>
</defs>
</svg>
